<svg xmlns="http://www.w3.org/2000/svg" xmlns:xlink="http://www.w3.org/1999/xlink" width="30" height="30" viewBox="0 0 30 30"><defs><clipPath id="a"><rect width="16" height="15.999" fill="none"/></clipPath></defs><g transform="translate(-321 -292)"><rect width="30" height="30" rx="15" transform="translate(321 292)" fill="#133f4d"/><g transform="translate(328 299)" clip-path="url(#a)"><path d="M-4613,15V9h-6a1,1,0,0,1-1-1,1,1,0,0,1,1-1h6V1a1,1,0,0,1,1-1,1,1,0,0,1,1,1V7h6a1,1,0,0,1,1,1,1,1,0,0,1-1,1h-6v6a1,1,0,0,1-1,1A1,1,0,0,1-4613,15Z" transform="translate(4620)" fill="rgba(255,255,255,0.85)"/></g></g></svg>