<svg xmlns="http://www.w3.org/2000/svg" xmlns:xlink="http://www.w3.org/1999/xlink" width="48" height="48" viewBox="0 0 48 48"><defs><filter id="a" x="0" y="0" width="48" height="48" filterUnits="userSpaceOnUse"><feOffset dy="3" input="SourceAlpha"/><feGaussianBlur stdDeviation="3" result="b"/><feFlood flood-opacity="0.388"/><feComposite operator="in" in2="b"/><feComposite in="SourceGraphic"/></filter><clipPath id="c"><rect width="16" height="15.999" fill="none"/></clipPath></defs><g transform="translate(-312 -116)"><g transform="matrix(1, 0, 0, 1, 312, 116)" filter="url(#a)"><rect width="30" height="30" rx="15" transform="translate(9 6)" fill="#133f4d"/></g><g transform="translate(328 129)" clip-path="url(#c)"><path d="M-4613,15V9h-6a1,1,0,0,1-1-1,1,1,0,0,1,1-1h6V1a1,1,0,0,1,1-1,1,1,0,0,1,1,1V7h6a1,1,0,0,1,1,1,1,1,0,0,1-1,1h-6v6a1,1,0,0,1-1,1A1,1,0,0,1-4613,15Z" transform="translate(3274.833 3263.52) rotate(45)" fill="rgba(255,255,255,0.85)"/></g></g></svg>